<svg xmlns="http://www.w3.org/2000/svg" xmlns:xlink="http://www.w3.org/1999/xlink" width="500" zoomAndPan="magnify" viewBox="0 0 375 374.999991" height="500" preserveAspectRatio="xMidYMid meet" version="1.2"><defs><clipPath id="02a22cea66"><rect x="0" width="212" y="0" height="375"/></clipPath></defs><g id="7612fcd719"><g transform="matrix(1,0,0,1,91,0)"><g clip-path="url(#02a22cea66)"><g style="fill:#e50000;fill-opacity:1;"><g transform="translate(1.013141, 362.968212)"><path style="stroke:none" d="M 134.84375 -351.15625 C 147.519531 -351.15625 159.132812 -349.867188 169.6875 -347.296875 C 180.25 -344.734375 188.394531 -342.25 194.125 -339.84375 L 181 -285.984375 C 174.96875 -288.703125 168.40625 -290.738281 161.3125 -292.09375 C 154.226562 -293.457031 147.671875 -294.140625 141.640625 -294.140625 C 133.492188 -294.140625 126.628906 -293.003906 121.046875 -290.734375 C 115.460938 -288.472656 111.085938 -285.378906 107.921875 -281.453125 C 104.753906 -277.535156 102.488281 -272.863281 101.125 -267.4375 C 99.769531 -262.007812 99.09375 -256.125 99.09375 -249.78125 L 99.09375 -238.015625 L 182.359375 -238.015625 L 182.359375 -181.90625 L 99.09375 -181.90625 L 99.09375 0 L 31.671875 0 L 31.671875 -250.6875 C 31.671875 -281.457031 40.34375 -305.894531 57.6875 -324 C 75.039062 -342.101562 100.757812 -351.15625 134.84375 -351.15625 Z M 134.84375 -351.15625 "/></g></g></g></g></g></svg>